<svg width="17" height="12" viewBox="0 0 17 12" fill="none" xmlns="http://www.w3.org/2000/svg">
<mask id="path-1-inside-1_5_239" fill="white">
<path fill-rule="evenodd" clip-rule="evenodd" d="M5.65685 6.19888e-06L11.3137 5.65686L5.65685 11.3137"/>
</mask>
<path d="M11.3137 5.65686L12.0208 6.36397L12.7279 5.65686L12.0208 4.94975L11.3137 5.65686ZM4.94975 0.707113L10.6066 6.36397L12.0208 4.94975L6.36396 -0.707101L4.94975 0.707113ZM10.6066 4.94975L4.94975 10.6066L6.36396 12.0208L12.0208 6.36397L10.6066 4.94975Z" fill="#9B9B9B" mask="url(#path-1-inside-1_5_239)"/>
<mask id="path-3-inside-2_5_239" fill="white">
<path fill-rule="evenodd" clip-rule="evenodd" d="M10.6569 6.19888e-06L16.3137 5.65686L10.6569 11.3137"/>
</mask>
<path d="M16.3137 5.65686L17.0208 6.36397L17.7279 5.65686L17.0208 4.94975L16.3137 5.65686ZM9.94975 0.707113L15.6066 6.36397L17.0208 4.94975L11.364 -0.707101L9.94975 0.707113ZM15.6066 4.94975L9.94975 10.6066L11.364 12.0208L17.0208 6.36397L15.6066 4.94975Z" fill="#9B9B9B" mask="url(#path-3-inside-2_5_239)"/>
</svg>
