<svg width="12" height="14" viewBox="0 0 12 14" fill="none" xmlns="http://www.w3.org/2000/svg">
<path d="M4 6.33337H2.66667V7.66671H4V6.33337ZM6.66667 6.33337H5.33333V7.66671H6.66667V6.33337ZM9.33333 6.33337H8V7.66671H9.33333V6.33337ZM10.6667 1.66671H10V0.333374H8.66667V1.66671H3.33333V0.333374H2V1.66671H1.33333C0.593333 1.66671 0.00666666 2.26671 0.00666666 3.00004L0 12.3334C0 13.0667 0.593333 13.6667 1.33333 13.6667H10.6667C11.4 13.6667 12 13.0667 12 12.3334V3.00004C12 2.26671 11.4 1.66671 10.6667 1.66671ZM10.6667 12.3334H1.33333V5.00004H10.6667V12.3334Z" fill="white"/>
</svg>
